<mxfile host="app.diagrams.net" modified="2024-12-02T02:58:53.505Z" agent="Mozilla/5.0 (Windows NT 10.0; Win64; x64) AppleWebKit/537.36 (KHTML, like Gecko) Chrome/131.0.0.0 Safari/537.36" etag="sgZKjZlXeUtWvmmbVCP6" version="24.5.4" type="github">
  <diagram name="Page-1" id="RM0rTBcH7kRVndvUtkDk">
    <mxGraphModel dx="1345" dy="726" grid="1" gridSize="10" guides="1" tooltips="1" connect="1" arrows="1" fold="1" page="1" pageScale="1" pageWidth="850" pageHeight="1100" math="0" shadow="0">
      <root>
        <mxCell id="0" />
        <mxCell id="1" parent="0" />
        <mxCell id="8uLvlP1i9F7rL3xwRi9W-22" style="edgeStyle=orthogonalEdgeStyle;rounded=0;orthogonalLoop=1;jettySize=auto;html=1;entryX=0;entryY=0.5;entryDx=0;entryDy=0;" edge="1" parent="1" source="8uLvlP1i9F7rL3xwRi9W-1" target="8uLvlP1i9F7rL3xwRi9W-11">
          <mxGeometry relative="1" as="geometry">
            <Array as="points">
              <mxPoint x="200" y="340" />
            </Array>
          </mxGeometry>
        </mxCell>
        <mxCell id="8uLvlP1i9F7rL3xwRi9W-29" style="edgeStyle=orthogonalEdgeStyle;rounded=0;orthogonalLoop=1;jettySize=auto;html=1;entryX=0;entryY=0.5;entryDx=0;entryDy=0;" edge="1" parent="1" source="8uLvlP1i9F7rL3xwRi9W-1" target="8uLvlP1i9F7rL3xwRi9W-15">
          <mxGeometry relative="1" as="geometry">
            <Array as="points">
              <mxPoint x="90" y="340" />
              <mxPoint x="90" y="460" />
            </Array>
          </mxGeometry>
        </mxCell>
        <mxCell id="8uLvlP1i9F7rL3xwRi9W-30" style="edgeStyle=orthogonalEdgeStyle;rounded=0;orthogonalLoop=1;jettySize=auto;html=1;entryX=0;entryY=0.5;entryDx=0;entryDy=0;" edge="1" parent="1" source="8uLvlP1i9F7rL3xwRi9W-1" target="8uLvlP1i9F7rL3xwRi9W-14">
          <mxGeometry relative="1" as="geometry">
            <Array as="points">
              <mxPoint x="90" y="340" />
              <mxPoint x="90" y="242" />
            </Array>
          </mxGeometry>
        </mxCell>
        <mxCell id="8uLvlP1i9F7rL3xwRi9W-1" value="Proprietário" style="shape=umlActor;verticalLabelPosition=bottom;verticalAlign=top;html=1;" vertex="1" parent="1">
          <mxGeometry x="20" y="310" width="30" height="60" as="geometry" />
        </mxCell>
        <mxCell id="8uLvlP1i9F7rL3xwRi9W-5" value="Sistema de Controle de Projetos" style="shape=umlFrame;whiteSpace=wrap;html=1;pointerEvents=0;recursiveResize=0;container=1;collapsible=0;width=160;" vertex="1" parent="1">
          <mxGeometry x="150" y="120" width="480" height="390" as="geometry" />
        </mxCell>
        <mxCell id="8uLvlP1i9F7rL3xwRi9W-37" style="edgeStyle=orthogonalEdgeStyle;rounded=0;orthogonalLoop=1;jettySize=auto;html=1;exitX=0.5;exitY=1;exitDx=0;exitDy=0;entryX=0.5;entryY=0;entryDx=0;entryDy=0;" edge="1" parent="8uLvlP1i9F7rL3xwRi9W-5" source="8uLvlP1i9F7rL3xwRi9W-11" target="8uLvlP1i9F7rL3xwRi9W-15">
          <mxGeometry relative="1" as="geometry" />
        </mxCell>
        <mxCell id="8uLvlP1i9F7rL3xwRi9W-38" value="&amp;lt;&amp;lt;extend&amp;gt;&amp;gt;" style="edgeLabel;html=1;align=center;verticalAlign=middle;resizable=0;points=[];" vertex="1" connectable="0" parent="8uLvlP1i9F7rL3xwRi9W-37">
          <mxGeometry x="-0.2303" y="-2" relative="1" as="geometry">
            <mxPoint x="-38" as="offset" />
          </mxGeometry>
        </mxCell>
        <mxCell id="8uLvlP1i9F7rL3xwRi9W-11" value="Registrar Novo Projeto" style="ellipse;html=1;whiteSpace=wrap;" vertex="1" parent="8uLvlP1i9F7rL3xwRi9W-5">
          <mxGeometry x="70" y="190" width="140" height="60" as="geometry" />
        </mxCell>
        <mxCell id="8uLvlP1i9F7rL3xwRi9W-15" value="Planejar Projetos Futuros" style="ellipse;html=1;whiteSpace=wrap;" vertex="1" parent="8uLvlP1i9F7rL3xwRi9W-5">
          <mxGeometry x="70" y="300" width="140" height="80" as="geometry" />
        </mxCell>
        <mxCell id="8uLvlP1i9F7rL3xwRi9W-35" style="edgeStyle=orthogonalEdgeStyle;rounded=0;orthogonalLoop=1;jettySize=auto;html=1;exitX=1;exitY=0.5;exitDx=0;exitDy=0;entryX=0;entryY=0.5;entryDx=0;entryDy=0;" edge="1" parent="8uLvlP1i9F7rL3xwRi9W-5" source="8uLvlP1i9F7rL3xwRi9W-14" target="8uLvlP1i9F7rL3xwRi9W-12">
          <mxGeometry relative="1" as="geometry" />
        </mxCell>
        <mxCell id="8uLvlP1i9F7rL3xwRi9W-36" value="&amp;lt;&amp;lt;include&amp;gt;&amp;gt;" style="edgeLabel;html=1;align=center;verticalAlign=middle;resizable=0;points=[];" vertex="1" connectable="0" parent="8uLvlP1i9F7rL3xwRi9W-35">
          <mxGeometry x="-0.2283" y="2" relative="1" as="geometry">
            <mxPoint x="4" y="-10" as="offset" />
          </mxGeometry>
        </mxCell>
        <mxCell id="8uLvlP1i9F7rL3xwRi9W-40" style="edgeStyle=orthogonalEdgeStyle;rounded=0;orthogonalLoop=1;jettySize=auto;html=1;entryX=1;entryY=0.5;entryDx=0;entryDy=0;startArrow=classic;startFill=1;endArrow=none;endFill=0;" edge="1" parent="8uLvlP1i9F7rL3xwRi9W-5" source="8uLvlP1i9F7rL3xwRi9W-14" target="8uLvlP1i9F7rL3xwRi9W-15">
          <mxGeometry relative="1" as="geometry">
            <Array as="points">
              <mxPoint x="140" y="180" />
              <mxPoint x="280" y="180" />
              <mxPoint x="280" y="340" />
            </Array>
          </mxGeometry>
        </mxCell>
        <mxCell id="8uLvlP1i9F7rL3xwRi9W-41" value="&amp;lt;&amp;lt;include&amp;gt;&amp;gt;" style="edgeLabel;html=1;align=center;verticalAlign=middle;resizable=0;points=[];" vertex="1" connectable="0" parent="8uLvlP1i9F7rL3xwRi9W-40">
          <mxGeometry x="-0.3932" y="-1" relative="1" as="geometry">
            <mxPoint y="-11" as="offset" />
          </mxGeometry>
        </mxCell>
        <mxCell id="8uLvlP1i9F7rL3xwRi9W-14" value="Gerar Relatórios de Desempenho" style="ellipse;html=1;whiteSpace=wrap;" vertex="1" parent="8uLvlP1i9F7rL3xwRi9W-5">
          <mxGeometry x="70" y="90" width="140" height="65" as="geometry" />
        </mxCell>
        <mxCell id="8uLvlP1i9F7rL3xwRi9W-12" value="Monitorar Progresso do Projeto" style="ellipse;html=1;whiteSpace=wrap;" vertex="1" parent="8uLvlP1i9F7rL3xwRi9W-5">
          <mxGeometry x="290" y="90" width="140" height="65" as="geometry" />
        </mxCell>
        <mxCell id="8uLvlP1i9F7rL3xwRi9W-13" value="Controlar Tempo Investido" style="ellipse;html=1;whiteSpace=wrap;" vertex="1" parent="8uLvlP1i9F7rL3xwRi9W-5">
          <mxGeometry x="310" y="210" width="140" height="65" as="geometry" />
        </mxCell>
        <mxCell id="8uLvlP1i9F7rL3xwRi9W-31" style="edgeStyle=orthogonalEdgeStyle;rounded=0;orthogonalLoop=1;jettySize=auto;html=1;entryX=0.5;entryY=0;entryDx=0;entryDy=0;" edge="1" parent="1" source="8uLvlP1i9F7rL3xwRi9W-16" target="8uLvlP1i9F7rL3xwRi9W-14">
          <mxGeometry relative="1" as="geometry">
            <Array as="points">
              <mxPoint x="380" y="170" />
              <mxPoint x="290" y="170" />
            </Array>
          </mxGeometry>
        </mxCell>
        <mxCell id="8uLvlP1i9F7rL3xwRi9W-32" style="edgeStyle=orthogonalEdgeStyle;rounded=0;orthogonalLoop=1;jettySize=auto;html=1;entryX=0.5;entryY=0;entryDx=0;entryDy=0;" edge="1" parent="1" source="8uLvlP1i9F7rL3xwRi9W-16" target="8uLvlP1i9F7rL3xwRi9W-12">
          <mxGeometry relative="1" as="geometry">
            <Array as="points">
              <mxPoint x="380" y="170" />
              <mxPoint x="510" y="170" />
            </Array>
          </mxGeometry>
        </mxCell>
        <mxCell id="8uLvlP1i9F7rL3xwRi9W-16" value="Gerente de Projetos" style="shape=umlActor;verticalLabelPosition=bottom;verticalAlign=top;html=1;" vertex="1" parent="1">
          <mxGeometry x="365" width="30" height="60" as="geometry" />
        </mxCell>
        <mxCell id="8uLvlP1i9F7rL3xwRi9W-33" style="edgeStyle=orthogonalEdgeStyle;rounded=0;orthogonalLoop=1;jettySize=auto;html=1;entryX=0.5;entryY=1;entryDx=0;entryDy=0;" edge="1" parent="1" source="8uLvlP1i9F7rL3xwRi9W-17" target="8uLvlP1i9F7rL3xwRi9W-13">
          <mxGeometry relative="1" as="geometry" />
        </mxCell>
        <mxCell id="8uLvlP1i9F7rL3xwRi9W-17" value="Equipe de Desenvolvimento" style="shape=umlActor;verticalLabelPosition=bottom;verticalAlign=top;html=1;" vertex="1" parent="1">
          <mxGeometry x="355" y="540" width="30" height="60" as="geometry" />
        </mxCell>
      </root>
    </mxGraphModel>
  </diagram>
</mxfile>
